<?xml version="1.0"?>
<svg xmlns="http://www.w3.org/2000/svg" id="_x31__x2C_5" enable-background="new 0 0 24 24" height="512px" viewBox="0 0 24 24" width="512px" class=""><g><g><path d="m8 15c-2.206 0-4-1.794-4-4s1.794-4 4-4 4 1.794 4 4-1.794 4-4 4zm0-6.5c-1.378 0-2.5 1.121-2.5 2.5s1.122 2.5 2.5 2.5 2.5-1.121 2.5-2.5-1.122-2.5-2.5-2.5z" data-original="#000000" class="active-path" data-old_color="#000000" fill="#FFFFFF"/></g><g><path d="m6.305 13.755-1.061-1.061 2.005-2.005v-2.689h1.5v3c0 .199-.079.39-.22.53z" data-original="#000000" class="active-path" data-old_color="#000000" fill="#FFFFFF"/></g><g><path d="m19.25 9.5h-4.5c-.414 0-.75-.336-.75-.75s.336-.75.75-.75h4.5c.414 0 .75.336.75.75s-.336.75-.75.75z" data-original="#000000" class="active-path" data-old_color="#000000" fill="#FFFFFF"/></g><g><path d="m19.25 14h-4.5c-.414 0-.75-.336-.75-.75s.336-.75.75-.75h4.5c.414 0 .75.336.75.75s-.336.75-.75.75z" data-original="#000000" class="active-path" data-old_color="#000000" fill="#FFFFFF"/></g><g><path d="m22.25 21h-20.5c-.965 0-1.75-.785-1.75-1.75v-13.5c0-.965.785-1.75 1.75-1.75h20.5c.965 0 1.75.785 1.75 1.75v13.5c0 .965-.785 1.75-1.75 1.75zm-20.5-15.5c-.138 0-.25.112-.25.25v13.5c0 .138.112.25.25.25h20.5c.138 0 .25-.112.25-.25v-13.5c0-.138-.112-.25-.25-.25z" data-original="#000000" class="active-path" data-old_color="#000000" fill="#FFFFFF"/></g><g><path d="m23.25 17.5h-22.5c-.414 0-.75-.336-.75-.75s.336-.75.75-.75h22.5c.414 0 .75.336.75.75s-.336.75-.75.75z" data-original="#000000" class="active-path" data-old_color="#000000" fill="#FFFFFF"/></g><g><path d="m15.25 24h-6.5c-.303 0-.577-.183-.693-.463s-.052-.602.163-.817c1.041-1.041 1.265-2.553 1.267-2.567.054-.411.432-.704.841-.646.411.054.7.431.646.841-.008.059-.147 1.066-.744 2.152h3.523c-.591-1.08-.738-2.088-.746-2.147-.057-.41.229-.788.64-.846.414-.058.788.229.846.639.007.045.232 1.469 1.184 2.487.195.136.323.361.323.617 0 .414-.336.75-.75.75z" data-original="#000000" class="active-path" data-old_color="#000000" fill="#FFFFFF"/></g><script xmlns="" class="active-path"/></g> </svg>
