<?xml version="1.0"?>
<svg xmlns="http://www.w3.org/2000/svg" id="color" enable-background="new 0 0 24 24" height="512px" viewBox="0 0 24 24" width="512px" class=""><g><path d="m15.854 23.146c-1.313-1.313-1.353-2.586-1.354-2.649-.002-.274-.225-.497-.5-.497h-4.02c-.276 0-.5.227-.5.503 0 .054-.018 1.327-1.333 2.643-.143.143-.186.357-.108.545.076.188.259.309.461.309h7c.202 0 .385-.121.462-.309.077-.187.034-.402-.108-.545z" fill="#90a4ae" data-original="#90A4AE" class="" style="fill:#C0FFB3" data-old_color="#90a4ae"/><path d="m22.25 4h-20.5c-.965 0-1.75.785-1.75 1.75v13.5c0 .965.785 1.75 1.75 1.75h20.5c.965 0 1.75-.785 1.75-1.75v-13.5c0-.965-.785-1.75-1.75-1.75z" fill="#607d8b" data-original="#607D8B" class="" style="fill:#52DE97" data-old_color="#607d8b"/><path d="m22 17h-20v-11h20z" fill="#fff" data-original="#FFF" class=""/><path d="m12 21h-2.591c-.118.501-.431 1.315-1.262 2.146-.143.143-.186.357-.108.545.076.188.259.309.461.309h3.5z" fill="#7d8f97" data-original="#7D8F97" class="" style="fill:#52DE97" data-old_color="#7d8f97"/><path d="m12 4h-10.25c-.965 0-1.75.785-1.75 1.75v13.5c0 .965.785 1.75 1.75 1.75h7.659 2.591v-4h-10v-11h10z" fill="#546d79" data-original="#546D79" class="" style="fill:#52DE97" data-old_color="#546d79"/><path d="m12 6h-10v11h10z" fill="#dedede" data-original="#DEDEDE" class=""/><path d="m8 7v4l-2.83 2.83c.73.72 1.73 1.17 2.83 1.17 2.21 0 4-1.79 4-4s-1.79-4-4-4z" fill="#2196f3" data-original="#2196F3" class="" style="fill:#394A6D" data-old_color="#2196f3"/><path d="m4 11c0 1.1.45 2.1 1.17 2.83l2.83-2.83v-4c-2.21 0-4 1.79-4 4z" fill="#ffc107" data-original="#FFC107" class="active-path" style="fill:#3C9D9B" data-old_color="#ffc107"/><path d="m19 10h-4c-.552 0-1-.447-1-1s.448-1 1-1h4c.552 0 1 .447 1 1s-.448 1-1 1z" fill="#90a4ae" data-original="#90A4AE" class="" style="fill:#C0FFB3" data-old_color="#90a4ae"/><path d="m19 14h-4c-.552 0-1-.447-1-1s.448-1 1-1h4c.552 0 1 .447 1 1s-.448 1-1 1z" fill="#90a4ae" data-original="#90A4AE" class="" style="fill:#C0FFB3" data-old_color="#90a4ae"/><g fill="#7d8f97"><path d="m17 8h-2c-.552 0-1 .447-1 1s.448 1 1 1h2z" data-original="#7D8F97" class="" style="fill:#52DE97" data-old_color="#7D8F97"/><path d="m17 12h-2c-.552 0-1 .447-1 1s.448 1 1 1h2z" data-original="#7D8F97" class="" style="fill:#52DE97" data-old_color="#7D8F97"/></g><script xmlns=""/></g> </svg>
