<?xml version="1.0"?>
<svg xmlns="http://www.w3.org/2000/svg" id="color" enable-background="new 0 0 24 24" height="512px" viewBox="0 0 24 24" width="512px" class=""><g><path d="m23.936 16.477-1.993-9.426c-.375-1.768-1.945-3.051-3.734-3.051h-12.418c-1.789 0-3.359 1.283-3.733 3.051l-1.993 9.426c-.184.871.03 1.766.589 2.455.55.679 1.364 1.068 2.233 1.068 1.188 0 2.24-.72 2.669-1.807l1.262-2.85c.042-.107.141-.177.251-.177h9.86c.11 0 .209.069.264.205l1.238 2.793c.442 1.116 1.494 1.836 2.682 1.836.869 0 1.683-.389 2.233-1.068.559-.689.774-1.584.59-2.455z" fill="#2196f3" data-original="#2196F3" class="" style="fill:#C0FFB3" data-old_color="#2196f3"/><path d="m12 4h-6.209c-1.789 0-3.359 1.283-3.733 3.051l-1.993 9.426c-.042.2-.064.402-.064.602v.025c.003.661.229 1.304.654 1.828.549.679 1.363 1.068 2.232 1.068 1.188 0 2.24-.72 2.669-1.807l1.262-2.85c.042-.107.141-.177.251-.177h4.931z" fill="#1d83d4" data-original="#1D83D4" class="" style="fill:#52DE97" data-old_color="#1d83d4"/><path d="m9.5 10.5h-1v1c0 .552-.448 1-1 1s-1-.448-1-1v-1h-1c-.552 0-1-.448-1-1s.448-1 1-1h1v-1c0-.552.448-1 1-1s1 .448 1 1v1h1c.552 0 1 .448 1 1s-.448 1-1 1z" fill="#fff" data-original="#FFF" class=""/><path d="m7.5 6.5c-.552 0-1 .448-1 1v1h-1c-.552 0-1 .448-1 1s.448 1 1 1h1v1c0 .552.448 1 1 1z" fill="#dedede" data-original="#DEDEDE" class="active-path" style="fill:#EEEEEE" data-old_color="#dedede"/><path d="m16.5 12c-1.378 0-2.5-1.122-2.5-2.5s1.122-2.5 2.5-2.5 2.5 1.122 2.5 2.5-1.122 2.5-2.5 2.5z" fill="#fff" data-original="#FFF" class=""/><path d="m16.5 7c-1.378 0-2.5 1.122-2.5 2.5s1.122 2.5 2.5 2.5z" fill="#dedede" data-original="#DEDEDE" class="active-path" style="fill:#EEEEEE" data-old_color="#dedede"/><script xmlns=""/></g> </svg>
