<?xml version="1.0"?>
<svg xmlns="http://www.w3.org/2000/svg" id="color" enable-background="new 0 0 24 24" height="512px" viewBox="0 0 24 24" width="512px" class=""><g><path d="m21 1h-18c-1.654 0-3 1.346-3 3v16c0 1.654 1.346 3 3 3h18c1.654 0 3-1.346 3-3v-16c0-1.654-1.346-3-3-3z" fill="#607d8b" data-original="#607D8B" class="" style="fill:#52DE97" data-old_color="#607d8b"/><path d="m21 21h-18c-.551 0-1-.448-1-1v-14h20v14c0 .552-.449 1-1 1z" fill="#fff" data-original="#FFF" class=""/><path d="m12 7c-3.584 0-6.5 2.916-6.5 6.5s2.916 6.5 6.5 6.5 6.5-2.916 6.5-6.5-2.916-6.5-6.5-6.5zm4.305 4h-1.805v-1.805c.749.437 1.368 1.056 1.805 1.805zm.695 2.5c0 .343-.035.677-.102 1h-2.398v-2h2.398c.067.323.102.657.102 1zm-10 0c0-.343.035-.677.102-1h2.398v2h-2.398c-.067-.323-.102-.657-.102-1zm4-1h2v2h-2zm2-3.898v2.398h-2v-2.398c.323-.067.657-.102 1-.102s.677.035 1 .102zm-3.5.593v1.805h-1.805c.437-.749 1.056-1.368 1.805-1.805zm-1.805 6.805h1.805v1.805c-.749-.437-1.368-1.056-1.805-1.805zm3.305 2.398v-2.398h2v2.398c-.323.066-.657.102-1 .102s-.677-.035-1-.102zm3.5-.593v-1.805h1.805c-.437.749-1.056 1.368-1.805 1.805z" fill="#4caf50" data-original="#4CAF50" class="" style="fill:#C0FFB3" data-old_color="#4caf50"/><path d="m12 1h-9c-1.654 0-3 1.346-3 3v16c0 1.654 1.346 3 3 3h9v-2h-9c-.551 0-1-.448-1-1v-14h10z" fill="#546d79" data-original="#546D79" class="active-path" style="fill:#52DE97" data-old_color="#546d79"/><path d="m9.5 16h-1.805c.437.749 1.056 1.368 1.805 1.805zm2.5 0h-1v2.398c.323.066.657.102 1 .102zm-2.5-3.5h-2.398c-.067.323-.102.657-.102 1s.035.677.102 1h2.398zm2.5 0h-1v2h1zm-2.5-3.305c-.749.437-1.368 1.056-1.805 1.805h1.805zm2.5-.695c-.343 0-.677.035-1 .102v2.398h1zm0-2.5h-10v14c0 .552.449 1 1 1h9v-1c-3.584 0-6.5-2.916-6.5-6.5s2.916-6.5 6.5-6.5z" fill="#dedede" data-original="#DEDEDE" class=""/><path d="m9.5 17.805c-.749-.437-1.368-1.056-1.805-1.805h1.805zm-2.398-3.305c-.067-.323-.102-.657-.102-1s.035-.677.102-1h2.398v2zm.593-3.5c.437-.749 1.056-1.368 1.805-1.805v1.805zm4.305-4c-3.584 0-6.5 2.916-6.5 6.5s2.916 6.5 6.5 6.5v-1.5c-.343 0-.677-.035-1-.102v-2.398h1v-1.5h-1v-2h1v-1.5h-1v-2.398c.323-.067.657-.102 1-.102z" fill="#429846" data-original="#429846" class="" style="fill:#52DE97" data-old_color="#429846"/><script xmlns=""/></g> </svg>
